<svg width="25" height="25" viewBox="0 0 25 25" fill="none" xmlns="http://www.w3.org/2000/svg">
<path d="M8.50588 9.92177L6.00676 10.1276C5.6654 10.1557 5.54577 10.5951 5.82576 10.7924L10.4032 14.0178C10.5328 14.1092 10.589 14.2736 10.5424 14.4251L8.84349 19.9487C8.73854 20.2899 9.1337 20.5645 9.41687 20.3472L13.819 16.9684C13.9506 16.8674 14.1337 16.8674 14.2653 16.9684L18.6674 20.3472C18.9506 20.5645 19.3457 20.2899 19.2408 19.9487L17.5386 14.4144C17.4936 14.2681 17.5443 14.1092 17.6657 14.016L22.1438 10.5789C22.4215 10.3658 22.2708 9.92177 21.9207 9.92177H16.4275C16.2666 9.92177 16.1245 9.81683 16.0772 9.66305L14.3675 4.10425C14.2638 3.76693 13.79 3.7568 13.6719 4.08939L11.7816 9.41449" stroke="#003331" stroke-width="1.37318" stroke-linecap="round"/>
</svg>
