<svg width="30" height="30" viewBox="0 0 30 30" fill="none" xmlns="http://www.w3.org/2000/svg">
<g clip-path="url(#clip0_270_372)">
<path d="M15.5964 4.65185C16.2627 4.00375 16.9558 2.33183 15.5964 1.39357C14.2369 0.455309 13.0958 1.34129 12.3278 2.51431C11.5598 3.68733 9.82112 9.50837 12.1584 18.2935M8.70416 1.68491C7.19895 3.63549 5.38373 11.5346 7.82813 18.2935" stroke="#003331" stroke-width="1.65" stroke-linecap="round"/>
<path d="M25.3377 15.5263C26.0011 16.1775 27.6862 16.8294 28.5873 15.4433C29.4885 14.0571 28.5757 12.9363 27.3862 12.1967C26.1968 11.4571 19.8678 10.0787 11.1657 12.6447M28.121 8.54459C26.1373 7.08609 17.7339 5.68407 11.0553 8.30572" stroke="#003331" stroke-width="1.65" stroke-linecap="round"/>
<path d="M14.163 25.2564C13.4899 25.8975 12.7795 27.5621 14.1291 28.5145C15.4788 29.4668 16.6291 28.5928 17.4092 27.4279C18.1893 26.2629 19.852 20.2041 17.6061 11.3951M21.024 28.295C22.5494 26.3602 24.2489 17.9929 21.8747 11.2089" stroke="#003331" stroke-width="1.65" stroke-linecap="round"/>
<path d="M4.66714 14.4369C3.99902 13.7907 2.30914 13.1512 1.41822 14.5439C0.527292 15.9366 1.4482 17.0508 2.64307 17.7816C3.83794 18.5124 9.94885 19.9156 18.632 17.2856M1.93505 21.439C3.92947 22.8828 11.9727 24.1867 18.6319 21.516" stroke="#003331" stroke-width="1.65" stroke-linecap="round"/>
</g>
<defs>
<clipPath id="clip0_270_372">
<rect width="30" height="30" fill="white"/>
</clipPath>
</defs>
</svg>
