<svg width="30" height="30" viewBox="0 0 30 30" fill="none" xmlns="http://www.w3.org/2000/svg">
<g clip-path="url(#clip0_270_369)">
<path d="M13.8209 0H21.3C21.3417 0.243884 21.3417 0.400174 21.3 0.468719C20.9919 0.975387 20.5829 1.22917 20.4731 1.52345C20.402 1.71409 20.262 2.21716 20.3343 2.55448C20.3841 2.78562 20.645 2.91221 20.6519 2.91386C22.4399 3.34463 23.7091 3.8798 24.8451 5.06382C26.0272 6.29569 26.6521 7.76979 26.6521 9.32654C26.6521 10.4189 26.3465 11.4653 25.744 12.4367C25.2684 13.2035 24.8595 13.9783 24.5281 14.7397L24.382 15.0755C23.092 18.0393 22.7039 21.289 23.2591 24.4732L23.7055 27.0317C23.7247 27.1056 23.7379 27.1811 23.7448 27.2571L23.8252 27.7183C23.8466 27.841 22.9205 28.9352 21.7936 29.3651C20.7242 29.7734 19.3226 29.998 17.8472 29.998C17.751 29.998 17.6557 29.997 17.5604 29.995C17.4652 29.997 17.3696 29.998 17.2736 29.998C15.7982 29.998 14.3967 29.7734 13.3272 29.3651C12.2004 28.9352 11.2742 27.841 11.2956 27.7183L11.376 27.2571C11.3828 27.1811 11.396 27.1056 11.4153 27.0317L11.8615 24.4732C12.4168 21.289 12.0286 18.0392 10.7389 15.0755L10.5928 14.7397C10.2614 13.9783 9.85226 13.2035 9.37679 12.4367C8.77428 11.4653 8.46875 10.4189 8.46875 9.32669C8.46875 7.76979 9.09361 6.29569 10.2755 5.06397C11.4117 3.87995 12.6808 3.34478 14.469 2.91401C14.4757 2.91236 14.7367 2.78577 14.7863 2.55463C14.8588 2.21716 14.7188 1.71424 14.6477 1.5236C14.5381 1.22947 14.1291 0.975537 13.8209 0.468869C13.7792 0.400174 13.7792 0.243884 13.8209 0ZM16.6512 1.87488C16.6984 2.23545 16.6972 2.58688 16.6195 2.94821C16.4977 3.51487 16.1989 3.93529 15.8177 4.25567C15.5597 4.47241 15.2611 4.65165 14.908 4.73669C13.2623 5.13312 12.4016 5.55624 11.6283 6.36199C10.773 7.25323 10.3436 8.26671 10.3436 9.32669C10.3436 10.0655 10.5494 10.7705 10.97 11.4486C11.4921 12.2907 11.9436 13.1454 12.3118 13.9917L12.4579 14.3275C13.8942 17.6278 14.3268 21.2494 13.7085 24.7953L13.2936 27.1734C13.5321 27.3734 13.7838 27.5327 13.9956 27.6135C14.8361 27.9343 16.0139 28.1232 17.2736 28.1232C17.3572 28.1232 17.4403 28.1223 17.5232 28.1206H17.5973C17.6803 28.1223 17.7635 28.1232 17.847 28.1232C19.1067 28.1232 20.2844 27.9342 21.1249 27.6135C21.3366 27.5327 21.5882 27.3734 21.8267 27.1734L21.412 24.7953C20.7937 21.2494 21.2263 17.6278 22.6625 14.3275L22.8087 13.9917C23.1769 13.1454 23.6284 12.2907 24.1505 11.4488C24.5711 10.7705 24.777 10.0655 24.777 9.32684C24.777 8.26686 24.3475 7.25338 23.4922 6.36214C22.7192 5.55624 21.8582 5.13327 20.2128 4.73684C19.8598 4.6518 19.5608 4.47256 19.303 4.25582C18.9219 3.93544 18.6231 3.51517 18.5013 2.94836C18.4236 2.58703 18.4224 2.2356 18.4696 1.87503H16.6512V1.87488Z" fill="#003331"/>
<path d="M0.151367 18.6888C2.04829 19.4166 3.93667 18.6888 5.46387 17.3189C7.63303 15.4765 9.84224 18.2646 11.427 19.6886C14.4243 22.3738 18.5363 22.646 21.7426 18.3794C22.4821 17.3677 23.012 16.11 23.7399 15.2702C24.0064 14.0552 23.7399 13.1011 23.1123 12.4735C22.3298 11.7916 20.897 11.6913 20.2154 12.2643C19.2697 13.061 19.4329 14.8003 20.6879 14.9006C21.3271 14.9551 21.6423 14.2731 21.3271 13.9551C21.1611 13.7889 20.8428 13.7459 21.0609 13.3734C21.2152 13.1642 21.7426 13.5281 21.9003 13.746C22.3274 14.2732 22.1668 15.4882 21.1181 15.6428C20.7458 15.6887 20.436 15.6428 20.1179 15.5312C20.2181 16.0584 20.2181 16.5855 20.1179 17.0584C19.691 19.0672 17.6938 20.1676 15.8514 20.1676C13.1092 20.1131 10.9456 17.7977 10.0573 17.0584C8.73351 16.004 6.63305 15.4307 4.89091 16.9582C3.89077 17.7977 2.21178 18.855 1.2517 18.4283C2.52106 18.3822 3.52105 17.7463 4.36084 17.0127C5.30653 16.1729 6.41256 15.3247 7.56719 15.4852C9.25503 15.6398 10.4642 16.7401 11.834 17.7433C13.3126 18.858 15.8916 20.4855 18.2697 18.7434C19.4703 17.9036 19.8974 15.9008 19.1094 14.6857C18.582 14.0039 17.2585 13.7402 16.5306 14.1585C15.4159 14.8404 15.3614 16.3736 16.5763 16.6944C17.2153 16.849 17.6309 16.2101 17.3732 15.8433C17.2183 15.6885 16.9461 15.5882 17.2183 15.2702C17.3732 15.061 17.8462 15.5252 17.9464 15.743C18.3186 16.3247 17.9464 17.4851 16.9005 17.4851C15.6853 17.5394 14.949 16.4851 15.0494 15.488V15.2672C14.4763 15.1127 13.949 15.2129 13.6796 15.3218C12.8974 15.6827 11.9489 15.8948 11.1551 15.3218C9.83414 14.4706 7.77672 14.0552 5.98014 14.8946C5.25224 15.2671 4.72502 15.677 4.35259 16.1099C3.67059 16.849 2.55586 17.5798 1.87386 17.7974C3.5704 16.6972 3.5704 16.4277 4.29815 15.5824C5.98584 13.6854 8.78256 13.4676 10.7339 14.4678C11.3615 14.8402 12.3615 15.3188 13.2584 14.8402C13.7856 14.5852 14.2584 14.313 15.2555 14.5852C15.6278 13.8459 16.3703 13.2613 17.525 13.2613C18.098 13.3159 18.5793 13.4705 18.9406 13.6883C18.9406 12.4188 19.5796 11.3729 21.0555 11.1636C23.0525 10.9544 24.9523 12.7511 24.5369 14.5335C24.7462 14.3788 25.0097 14.2785 25.2764 14.2153C27.2192 13.8429 29.0159 15.161 29.0615 16.6941C29.116 18.1641 28.1788 19.6912 26.5913 19.4821C26.0643 20.0095 25.322 20.4822 24.4768 20.4822C23.6943 20.5367 23.8492 20.2271 22.8893 21.2217C21.7887 22.0039 21.7345 22.5368 17.4106 22.4911C21.0467 22.1213 21.5196 21.5395 22.471 20.7515C23.6254 19.7974 23.3106 19.6972 24.0585 19.9121C25.0042 19.9121 25.6313 19.7027 25.9008 19.3303C25.9008 19.3303 25.8463 19.3303 25.8463 19.2759C24.2588 18.6483 24.8465 16.8057 26.0013 16.588C26.2105 16.5336 26.6285 16.588 26.6285 16.8543C26.683 17.1094 26.3107 17.2727 26.11 17.2727C25.5827 17.2727 25.4711 18.1124 25.7375 18.3875C27.3654 20.1184 29.3624 17.333 27.9528 15.6909C26.7376 14.221 24.6862 14.8515 23.9412 16.1181C23.2131 17.2727 22.6859 18.3875 21.6717 19.5995C19.2015 22.6512 14.0897 23.6973 9.714 19.018C8.61367 17.8028 7.08917 16.3302 5.0289 18.2786C4.18925 18.8059 3.23217 19.2784 2.03164 19.2784C1.2517 19.2618 0.678583 19.0611 0.151367 18.6888Z" fill="#003331"/>
</g>
<defs>
<clipPath id="clip0_270_369">
<rect width="30" height="30" fill="white"/>
</clipPath>
</defs>
</svg>
