<svg width="30" height="30" viewBox="0 0 30 30" fill="none" xmlns="http://www.w3.org/2000/svg">
<path d="M18.8401 9.09L18.8701 9.06H18.9301C19.5001 9.06 20.1301 8.82 20.7601 8.34C21.5101 7.74 22.2301 6.84 22.7401 5.76C23.9101 3.27 23.7001 0.9 22.2301 0.18C21.4501 -0.18 20.5201 0 19.5901 0.72C18.8401 1.32 18.1201 2.22 17.6101 3.3C16.6801 5.28 16.6201 7.2 17.3701 8.25L17.0401 8.91C16.3801 8.88 15.7201 8.85 15.0301 8.85C7.20008 8.85 1.08008 11.85 1.08008 15.66C1.08008 18.69 4.95008 21.21 10.4701 22.11L7.11008 28.77C6.90008 29.19 7.08008 29.7 7.50008 29.91C7.62008 29.97 7.74008 30 7.89008 30C8.19008 30 8.49008 29.82 8.64008 29.52L12.2401 22.32C13.1401 22.41 14.0701 22.44 15.0301 22.44C22.8601 22.44 28.9801 19.44 28.9801 15.63C28.9501 12.48 24.7201 9.9 18.8401 9.09ZM19.1401 4.05C19.5301 3.21 20.0701 2.49 20.6401 2.07C20.9701 1.8 21.2401 1.71 21.4201 1.71C21.4501 1.71 21.4801 1.71 21.5101 1.74C21.8701 1.92 22.0201 3.33 21.1801 5.04C20.7901 5.88 20.2501 6.6 19.6801 7.02C19.2601 7.35 18.9301 7.44 18.8101 7.38C18.4501 7.17 18.3301 5.76 19.1401 4.05ZM2.76008 15.66C2.76008 13.26 7.80008 10.56 15.0001 10.56C15.3901 10.56 15.8101 10.56 16.2001 10.59L13.7401 15.51C13.5301 15.93 13.7101 16.44 14.1301 16.65C14.1601 16.68 14.1901 16.68 14.2501 16.68C13.2601 17.1 12.2701 17.37 11.1901 17.19C9.72008 16.98 8.31008 16.02 6.96008 14.31C6.66008 13.95 6.12008 13.89 5.76008 14.19C5.40008 14.49 5.34008 15.03 5.64008 15.39C7.23008 17.43 9.00008 18.6 10.9201 18.87C11.2501 18.93 11.5501 18.93 11.8801 18.93C13.8001 18.93 15.4201 18.03 16.9801 17.16C18.6301 16.23 20.1901 15.36 22.0201 15.69C23.2501 15.9 24.4201 16.62 25.5001 17.79C25.5601 17.88 25.6501 17.94 25.7401 17.97C23.7301 19.5 19.8601 20.73 15.0001 20.73C7.77008 20.76 2.76008 18.06 2.76008 15.66ZM26.8801 16.83C26.8501 16.77 26.8201 16.71 26.7601 16.65C25.4401 15.18 23.9401 14.28 22.3201 14.01C19.8901 13.59 18.0001 14.64 16.1401 15.69L15.3301 16.14L18.0301 10.71C23.5801 11.34 27.2701 13.59 27.2701 15.66C27.2701 16.05 27.1201 16.44 26.8801 16.83Z" fill="#003331"/>
</svg>
