<svg width="30" height="30" viewBox="0 0 30 30" fill="none" xmlns="http://www.w3.org/2000/svg">
<path d="M13.4082 15.0725V13.1453C13.4082 12.924 13.4767 12.5818 13.7496 12.4185C14.0226 12.2552 14.2893 12.2381 14.5138 12.2862C14.7384 12.3343 15.6316 12.8067 15.8344 12.9434C16.0372 13.08 16.2117 13.2489 16.2545 13.4725C16.2974 13.6961 16.3106 13.8965 15.9333 14.3027L14.6253 15.5765" stroke="#003331" stroke-width="1.2" stroke-linecap="round"/>
<path d="M14.6796 15.5101L16.0655 14.1709C16.2246 14.0172 16.5183 13.8286 16.8254 13.9114C17.1325 13.9942 17.3301 14.1742 17.4516 14.369C17.573 14.5639 17.854 15.5345 17.8967 15.7753C17.9393 16.0161 17.9391 16.2589 17.8081 16.4451C17.6771 16.6314 17.5422 16.7801 16.9879 16.791L15.163 16.7356" stroke="#003331" stroke-width="1.2" stroke-linecap="round"/>
<path d="M15.1958 16.7294L17.1218 16.7954C17.343 16.803 17.6827 16.8832 17.8365 17.1616C17.9903 17.44 17.9983 17.7071 17.9425 17.9299C17.8868 18.1526 17.384 19.0291 17.2405 19.2271C17.097 19.4251 16.9222 19.5937 16.6973 19.6289C16.4723 19.6641 16.2716 19.6704 15.8786 19.2794L14.6504 17.9286" stroke="#003331" stroke-width="1.2" stroke-linecap="round"/>
<path d="M14.6799 17.9607L15.9852 19.3785C16.1351 19.5413 16.3165 19.8395 16.2263 20.1445C16.1361 20.4495 15.9514 20.6427 15.7537 20.7594C15.5559 20.8761 14.5788 21.1335 14.337 21.1704C14.0953 21.2072 13.8526 21.2011 13.6695 21.0657C13.4865 20.9302 13.3411 20.7917 13.3436 20.2373L13.4431 18.4143" stroke="#003331" stroke-width="1.2" stroke-linecap="round"/>
<path d="M13.4478 18.4707L13.3315 20.3944C13.3182 20.6153 13.2292 20.9528 12.9469 21.0993C12.6646 21.2458 12.3973 21.2468 12.1761 21.1852C11.9549 21.1237 11.0918 20.5983 10.8976 20.4496C10.7034 20.301 10.5394 20.1219 10.5101 19.8961C10.4808 19.6703 10.4797 19.4695 10.8808 19.0868L12.2632 17.8942" stroke="#003331" stroke-width="1.2" stroke-linecap="round"/>
<path d="M12.2522 17.9063L10.7784 19.1481C10.6092 19.2907 10.3034 19.4588 10.0026 19.3553C9.7019 19.2518 9.51697 19.0588 9.40906 18.8561C9.30115 18.6535 9.08688 17.666 9.0607 17.4228C9.03451 17.1797 9.05124 16.9375 9.19461 16.7606C9.33797 16.5837 9.48274 16.4445 10.0364 16.4713L11.8533 16.6507" stroke="#003331" stroke-width="1.2" stroke-linecap="round"/>
<path d="M11.7717 16.6484L9.85453 16.4515C9.63442 16.4289 9.30097 16.3258 9.16643 16.0376C9.03189 15.7494 9.04214 15.4823 9.11291 15.2639C9.18368 15.0454 9.62659 14.3552 9.78324 14.1674C9.9399 13.9796 10.1053 13.8661 10.3252 13.8288C10.5452 13.7915 10.7206 13.7333 11.0861 14.1501L12.3973 15.4891" stroke="#003331" stroke-width="1.2" stroke-linecap="round"/>
<path d="M12.3495 15.435L11 14.0592C10.845 13.9013 10.6579 13.6098 10.7158 13.2971C10.7727 12.9899 10.9144 12.8342 11.1084 12.7112C11.3023 12.5883 12.1684 12.2647 12.4089 12.2202C12.6494 12.1757 12.9079 12.2256 13.0951 12.3552C13.2823 12.4848 13.389 12.615 13.4041 13.1691L13.4041 15.0468" stroke="#003331" stroke-width="1.2" stroke-linecap="round"/>
<circle cx="13.4781" cy="16.7311" r="10.9738" stroke="#003331" stroke-width="1.2"/>
<circle cx="13.478" cy="16.731" r="9.18369" stroke="#003331" stroke-width="1.2"/>
<circle cx="13.4779" cy="16.7313" r="1.12298" stroke="#003331" stroke-width="1.2"/>
<path d="M26.068 3.22253C25.7038 3.58954 20.7798 9.31672 18.2479 12.2654C18.1072 12.4293 18.3278 12.6494 18.4914 12.5085C21.4485 9.96099 27.207 4.97709 27.5879 4.47096C28.102 3.78794 28.032 3.40067 27.588 3.02423C27.144 2.6478 26.5599 2.72684 26.068 3.22253Z" stroke="#003331" stroke-width="1.2" stroke-linecap="round"/>
<path d="M23.2967 1.8457C23.144 2.56114 23.2606 3.69791 25.4637 3.82587C27.7933 3.96119 27.9961 6.67995 27.1309 8.13312C26.2657 9.58628 25.0798 11.9226 28.2462 12.8602" stroke="#003331" stroke-width="1.2" stroke-linecap="round"/>
</svg>
