<svg width="30" height="30" viewBox="0 0 30 30" fill="none" xmlns="http://www.w3.org/2000/svg">
<path d="M24.7793 9.42773C24.29 8.94141 23.6426 8.67188 22.9541 8.67188C22.2656 8.67188 21.6182 8.94141 21.1318 9.42773L20.3027 10.2568L18.6445 8.59863L19.4736 7.76953C20.4785 6.76465 20.4785 5.12988 19.4736 4.12207C18.4688 3.11719 16.834 3.11719 15.8291 4.12207L15.4688 4.48242V3.14941C15.7471 2.98828 15.9375 2.68945 15.9375 2.34082C15.9375 1.99512 15.7471 1.69629 15.4688 1.53223V0.9375C15.4688 0.679687 15.2578 0.46875 15 0.46875C14.7422 0.46875 14.5312 0.679687 14.5312 0.9375V1.53516C14.2529 1.69629 14.0625 1.99512 14.0625 2.34375C14.0625 2.68945 14.2529 2.98828 14.5312 3.15234V4.48242L14.1709 4.12207C13.166 3.11719 11.5313 3.11719 10.5234 4.12207C9.51856 5.12695 9.51856 6.76172 10.5234 7.76953L11.3525 8.59863L9.69727 10.2568L8.86816 9.42773C8.38184 8.94141 7.73438 8.67188 7.0459 8.67188C6.35742 8.67188 5.70996 8.94141 5.22363 9.42773C4.7373 9.91406 4.46777 10.5615 4.46777 11.25C4.46777 11.9385 4.7373 12.5859 5.22363 13.0723C5.70996 13.5586 6.35742 13.8281 7.0459 13.8281C7.73438 13.8281 8.38184 13.5586 8.86816 13.0723L9.69727 12.2432L11.3555 13.9014L10.5264 14.7305C9.52148 15.7354 9.52148 17.3701 10.5264 18.3779C11.0303 18.8818 11.6895 19.1309 12.3486 19.1309C13.0078 19.1309 13.6699 18.8789 14.1709 18.3779L14.5312 18.0176V18.8818C14.2529 19.043 14.0625 19.3418 14.0625 19.6904C14.0625 20.0361 14.2529 20.335 14.5312 20.499V21.5625H14.0625C13.8047 21.5625 13.5938 21.7734 13.5938 22.0312V22.9688H16.4062V22.0312C16.4062 21.7734 16.1953 21.5625 15.9375 21.5625H15.4688V20.4961C15.7471 20.335 15.9375 20.0361 15.9375 19.6875C15.9375 19.3418 15.7471 19.043 15.4688 18.8789V18.0176L15.8291 18.3779C16.333 18.8818 16.9922 19.1309 17.6514 19.1309C18.3105 19.1309 18.9727 18.8789 19.4736 18.3779C20.4785 17.373 20.4785 15.7383 19.4736 14.7305L18.6445 13.9014L20.3027 12.2432L21.1318 13.0723C21.6182 13.5586 22.2656 13.8281 22.9541 13.8281C23.6426 13.8281 24.29 13.5586 24.7764 13.0723C25.2627 12.5859 25.5322 11.9385 25.5322 11.25C25.5322 10.5615 25.2656 9.91406 24.7793 9.42773ZM7.875 12.0791C7.43262 12.5215 6.65918 12.5215 6.2168 12.0791C5.99414 11.8564 5.87402 11.5635 5.87402 11.25C5.87402 10.9365 5.99707 10.6436 6.2168 10.4209C6.43652 10.1982 6.73242 10.0781 7.0459 10.0781C7.35937 10.0781 7.65234 10.2012 7.875 10.4209L8.70117 11.25L7.875 12.0791ZM15 10.2568L13.3418 8.59863L15 6.94043L16.6582 8.59863L15 10.2568ZM15 12.2432L16.6582 13.9014L15 15.5596L13.3418 13.9014L15 12.2432ZM12.3486 9.5918L14.0068 11.25L12.3486 12.9082L10.6904 11.25L12.3486 9.5918ZM17.6514 12.9082L15.9932 11.25L17.6514 9.5918L19.3096 11.25L17.6514 12.9082ZM18.4805 5.11816C18.9375 5.5752 18.9375 6.31934 18.4805 6.77637L17.6514 7.60547L15.9932 5.94727L16.8223 5.11816C17.2793 4.66113 18.0234 4.66113 18.4805 5.11816ZM11.5195 5.11816C11.748 4.88965 12.0469 4.77539 12.3486 4.77539C12.6475 4.77539 12.9492 4.88965 13.1777 5.11816L14.0068 5.94727L12.3486 7.60547L11.5195 6.77637C11.0625 6.31934 11.0625 5.5752 11.5195 5.11816ZM11.5195 17.3818C11.0625 16.9248 11.0625 16.1807 11.5195 15.7236L12.3486 14.8945L14.0068 16.5527L13.1777 17.3818C12.7207 17.8389 11.9766 17.8389 11.5195 17.3818ZM18.4805 17.3818C18.0234 17.8389 17.2793 17.8389 16.8223 17.3818L15.9932 16.5527L17.6514 14.8945L18.4805 15.7236C18.9375 16.1807 18.9375 16.9248 18.4805 17.3818ZM23.7832 12.0791C23.3408 12.5215 22.5674 12.5215 22.125 12.0791L21.2988 11.25L22.1279 10.4209C22.5703 9.97852 23.3438 9.97852 23.7861 10.4209C24.0088 10.6436 24.1289 10.9365 24.1289 11.25C24.1289 11.5635 24.0059 11.8564 23.7832 12.0791Z" fill="#003331"/>
<path d="M13.5938 23.4375H16.4062V29.5312H13.5938V23.4375Z" fill="#003331"/>
</svg>
