<svg width="20" height="20" viewBox="0 0 20 20" fill="none" xmlns="http://www.w3.org/2000/svg">
<path d="M9.22326 2.50886L10.6773 2.88361C10.7808 2.91031 10.843 3.01609 10.8159 3.11956L9.43915 8.37886C9.41127 8.48536 9.30015 8.54706 9.19501 8.5144L7.78418 8.07624L8.98649 2.65408C9.01014 2.54742 9.11747 2.48159 9.22326 2.50886Z" stroke="#2D2E27"/>
<path d="M5.14819 14.615L3.86772 13.6652C3.77894 13.5994 3.76343 13.4726 3.83371 13.3873L7.28769 9.19465L8.87854 9.89513L5.41856 14.5747C5.35508 14.6605 5.23396 14.6786 5.14819 14.615Z" stroke="#2D2E27"/>
<path d="M7.34535 9.08893L7.74139 8.22768C7.78063 8.14236 7.87512 8.09775 7.96537 8.12369C8.64509 8.31906 11.3905 9.16524 13.1341 10.5505C13.2069 10.6084 13.2253 10.7105 13.1797 10.7917L12.6778 11.686C12.6169 11.7946 12.4704 11.8188 12.3723 11.7419C11.3265 10.9222 8.77621 9.74777 7.4716 9.36191C7.35557 9.32759 7.2948 9.19886 7.34535 9.08893Z" stroke="#2D2E27"/>
<path d="M9.36816 8.67918C9.36816 8.67918 11.036 2.33318 11.1417 2.09622C11.2473 1.85925 11.4264 1.48485 12.259 1.32351C13.0916 1.16217 14.9757 1.82132 15.5993 2.43971C16.2228 3.0581 16.1802 3.45991 16.1109 3.72832C16.0416 3.99673 14.6008 7.42773 13.8139 9.28007" stroke="#2D2E27"/>
<path d="M12.7322 11.5959C12.7322 11.5959 9.72242 17.6151 9.54138 17.8645C9.36035 18.1139 9.07536 18.4703 8.18918 18.3918C7.30299 18.3132 5.57615 17.3595 5.1045 16.6054C4.63284 15.8512 4.90706 15.4573 5.03425 15.2034C5.16144 14.9496 7.73667 11.532 8.91576 9.847" stroke="#2D2E27"/>
<path d="M13.3038 12.087C13.2418 12.0106 13.168 11.9027 13.0947 11.7888C12.8821 11.4582 12.9611 11.0253 13.2581 10.7679C13.4112 10.6353 13.6077 10.5619 13.8096 10.5783C14.0282 10.5962 14.3181 10.6332 14.5339 10.71C14.9289 10.8506 15.1356 11.002 15.3311 11.3348C15.5266 11.6676 15.5406 12.087 15.261 12.4364C14.9815 12.7859 14.4373 12.7834 14.0656 12.6741C13.694 12.5647 13.5135 12.3456 13.3038 12.087Z" stroke="#2D2E27"/>
<path d="M16.5856 9.19525C16.2202 8.97433 15.629 8.90635 15.3206 8.90625C15.0121 8.90615 14.3264 9.0061 13.9643 9.07406C13.692 9.12513 13.3781 9.75443 13.1859 10.1416C13.1222 10.2698 13.2065 10.441 13.3476 10.4654C14.2096 10.6149 15.5749 10.9275 15.8204 10.9512C16.0977 10.978 16.3725 10.8675 16.543 10.7324C16.7135 10.5974 16.8734 10.4484 16.9133 10.1473C16.9531 9.84619 16.951 9.41616 16.5856 9.19525Z" stroke="#2D2E27"/>
</svg>
