<svg width="20" height="20" viewBox="0 0 20 20" fill="none" xmlns="http://www.w3.org/2000/svg">
  <path d="M17.6348 6.72659L10.2988 1.32034C10.1582 1.21683 9.9668 1.21487 9.82422 1.31448L2.0918 6.72659C1.98242 6.80276 1.91797 6.92776 1.91797 7.06057V17.8438C1.91797 18.0684 2.09961 18.25 2.32422 18.25H7.21094C7.43555 18.25 7.61719 18.0684 7.61719 17.8438L7.61719 13.6035C7.61719 12.2656 8.64844 11.0996 9.98438 11.0586C11.3672 11.0176 12.502 12.127 12.502 13.5C12.502 14.873 12.502 17.8418 12.502 17.8418C12.502 18.0664 12.6836 18.2481 12.9082 18.2481H17.3867C17.6113 18.2481 17.793 18.0664 17.793 17.8418V7.05276C17.8008 6.92386 17.7383 6.80276 17.6348 6.72659Z" fill="none" stroke="#003331" stroke-width="1.2" stroke-linejoin="round"/>
</svg>

