<svg width="15" height="18" viewBox="0 0 15 18" fill="none" xmlns="http://www.w3.org/2000/svg">
<path d="M1.49996 10.1057C1.49996 11.1134 1.74067 12.0512 2.22209 12.9192C2.70351 13.7871 3.36538 14.4871 4.20771 15.0192C4.13334 14.8782 4.08013 14.7375 4.04808 14.5971C4.01603 14.4567 4 14.3096 4 14.1557C4 13.6929 4.08878 13.257 4.26634 12.848C4.44391 12.4391 4.69871 12.0685 5.03076 11.7365L7.49996 9.30768L9.97878 11.7365C10.3108 12.0685 10.564 12.4391 10.7384 12.848C10.9127 13.257 10.9999 13.6929 10.9999 14.1557C10.9999 14.3096 10.9839 14.4567 10.9518 14.5971C10.9198 14.7375 10.8666 14.8782 10.7922 15.0192C11.6345 14.4871 12.2964 13.7871 12.7778 12.9192C13.2593 12.0512 13.5 11.1134 13.5 10.1057C13.5 9.27237 13.3458 8.48487 13.0375 7.7432C12.7291 7.00154 12.2833 6.33904 11.7 5.7557C11.3666 5.97237 11.0166 6.13487 10.65 6.2432C10.2833 6.35154 9.9083 6.4057 9.52496 6.4057C8.48522 6.4057 7.58618 6.06404 6.82785 5.3807C6.06951 4.69737 5.63522 3.84929 5.52496 2.83647C4.87496 3.38006 4.29996 3.94769 3.79996 4.53936C3.29996 5.13102 2.87913 5.73423 2.53746 6.34897C2.1958 6.96372 1.93746 7.58775 1.76246 8.22109C1.58746 8.85442 1.49996 9.48263 1.49996 10.1057ZM7.49996 11.4057L6.07496 12.8057C5.89163 12.989 5.74996 13.1974 5.64996 13.4307C5.54996 13.664 5.49996 13.9057 5.49996 14.1557C5.49996 14.689 5.6958 15.1474 6.08746 15.5307C6.47913 15.914 6.94996 16.1057 7.49996 16.1057C8.04996 16.1057 8.5208 15.914 8.91246 15.5307C9.30413 15.1474 9.49996 14.689 9.49996 14.1557C9.49996 13.889 9.44996 13.6432 9.34996 13.4182C9.24996 13.1932 9.1083 12.989 8.92496 12.8057L7.49996 11.4057ZM6.99993 0V2.4057C6.99993 3.11341 7.24384 3.70701 7.73167 4.1865C8.2195 4.66599 8.81726 4.90574 9.52496 4.90574C9.83137 4.90574 10.1234 4.84805 10.4009 4.73266C10.6785 4.61728 10.9333 4.44741 11.1654 4.22305L11.6057 3.77883C12.6596 4.45319 13.4887 5.35286 14.0932 6.47785C14.6977 7.60284 14.9999 8.81213 14.9999 10.1057C14.9999 12.198 14.273 13.9711 12.8192 15.4249C11.3653 16.8787 9.59226 17.6057 7.49996 17.6057C5.40767 17.6057 3.6346 16.8787 2.18076 15.4249C0.72692 13.9711 0 12.198 0 10.1057C0 8.17367 0.62948 6.31471 1.88844 4.52882C3.1474 2.74293 4.85123 1.23333 6.99993 0Z" fill="#003331"/>
</svg>
