<svg width="19" height="19" viewBox="0 0 19 19" fill="none" xmlns="http://www.w3.org/2000/svg">
<path d="M2.80768 18.9999C2.30896 18.9999 1.88301 18.8233 1.5298 18.4701C1.1766 18.1169 1 17.691 1 17.1922V5.99418C0.706411 5.8429 0.466347 5.62784 0.279808 5.34899C0.0932693 5.07014 0 4.74867 0 4.38457V1.80768C0 1.30896 0.176601 0.883006 0.529803 0.529803C0.883006 0.176601 1.30896 0 1.80768 0H17.1922C17.691 0 18.1169 0.176601 18.4701 0.529803C18.8233 0.883006 18.9999 1.30896 18.9999 1.80768V4.38457C18.9999 4.74867 18.9067 5.07014 18.7201 5.34899C18.5336 5.62784 18.2935 5.8429 17.9999 5.99418V17.1922C17.9999 17.691 17.8233 18.1169 17.4701 18.4701C17.1169 18.8233 16.691 18.9999 16.1922 18.9999H2.80768ZM2.49996 6.19225V17.1442C2.49996 17.2467 2.53683 17.3317 2.61055 17.399C2.68427 17.4663 2.77562 17.5 2.88461 17.5H16.1922C16.282 17.5 16.3557 17.4711 16.4134 17.4134C16.4711 17.3557 16.5 17.282 16.5 17.1922V6.19225H2.49996ZM1.80768 4.69229H17.1922C17.282 4.69229 17.3557 4.66344 17.4134 4.60574C17.4711 4.54804 17.5 4.47432 17.5 4.38457V1.80768C17.5 1.71793 17.4711 1.6442 17.4134 1.58651C17.3557 1.52881 17.282 1.49996 17.1922 1.49996H1.80768C1.71793 1.49996 1.6442 1.52881 1.58651 1.58651C1.52881 1.6442 1.49996 1.71793 1.49996 1.80768V4.38457C1.49996 4.47432 1.52881 4.54804 1.58651 4.60574C1.6442 4.66344 1.71793 4.69229 1.80768 4.69229ZM6.69229 10.9326H12.3076V9.49996H6.69229V10.9326Z" fill="#003331"/>
</svg>
