<svg width="20" height="20" viewBox="0 0 20 20" fill="none" xmlns="http://www.w3.org/2000/svg">
<rect width="20" height="20" rx="10" fill="#003331"/>
<path d="M14.0458 6.74756C13.0642 6.74756 12.2637 7.54813 12.2637 8.52966C12.2637 9.06155 12.4967 9.53861 12.8696 9.86213C12.3021 10.1596 11.6706 10.314 11.0299 10.3118C9.596 10.3118 8.27176 9.53861 7.56988 8.29114C7.56714 8.28839 7.56714 8.28565 7.5644 8.28291C7.57811 8.22533 7.59182 8.16776 7.61101 8.11292C8.0568 8.07569 8.47238 7.87246 8.77549 7.54346C9.0786 7.21446 9.24716 6.78365 9.2478 6.3363C9.2478 5.35478 8.44723 4.5542 7.4657 4.5542C6.48417 4.5542 5.68359 5.35478 5.68359 6.3363C5.68395 6.68985 5.78945 7.03531 5.98669 7.32872C6.18393 7.62214 6.46399 7.85026 6.79124 7.98406C6.60206 8.69416 6.5061 9.43168 6.5061 10.1747C6.5061 10.9177 6.59932 11.6525 6.7885 12.3653C6.14146 12.6312 5.68359 13.2701 5.68359 14.0131C5.68359 14.9946 6.48417 15.7952 7.4657 15.7952C8.44723 15.7952 9.2478 14.9946 9.2478 14.0131C9.2478 13.0781 8.52399 12.3077 7.60553 12.2364C7.42183 11.5647 7.32861 10.8738 7.32861 10.1747C7.32861 9.92519 7.33958 9.67569 7.367 9.42894C8.26353 10.4982 9.60148 11.1343 11.0299 11.1343C12.0142 11.1343 12.9518 10.8409 13.7524 10.2871C13.8484 10.3035 13.9471 10.3118 14.0458 10.3118C15.0273 10.3118 15.8279 9.51119 15.8279 8.52966C15.8279 7.54813 15.0273 6.74756 14.0458 6.74756ZM6.5061 6.3363C6.5061 5.80716 6.93655 5.37671 7.4657 5.37671C7.99485 5.37671 8.42529 5.80716 8.42529 6.3363C8.42529 6.86545 7.99485 7.2959 7.4657 7.2959C6.93655 7.2959 6.5061 6.86545 6.5061 6.3363ZM7.4657 13.1193C7.99485 13.1193 8.42529 13.5168 8.42529 14.046C8.42529 14.5751 7.99485 14.9727 7.4657 14.9727C6.93655 14.9727 6.5061 14.608 6.5061 14.0789C6.5061 13.5854 6.90913 13.1193 7.4657 13.1193ZM14.0458 9.48926C13.5166 9.48926 13.0862 9.05881 13.0862 8.52966C13.0862 8.00051 13.5166 7.57007 14.0458 7.57007C14.5749 7.57007 15.0054 8.00051 15.0054 8.52966C15.0054 9.05881 14.5749 9.48926 14.0458 9.48926Z" fill="white"/>
</svg>
