<svg width="20" height="20" viewBox="0 0 20 20" fill="none" xmlns="http://www.w3.org/2000/svg">
<rect width="20" height="20" rx="10" fill="#003331"/>
<path d="M9.99935 15.1648C9.94925 15.1649 9.89931 15.1591 9.8506 15.1473L4.6006 13.7648C4.47576 13.7319 4.36536 13.6585 4.28672 13.5561C4.20807 13.4537 4.16562 13.3281 4.16602 13.199V6.43816C4.16619 6.34897 4.18681 6.26101 4.2263 6.18104C4.26578 6.10107 4.32307 6.03122 4.39377 5.97686C4.46448 5.92249 4.5467 5.88507 4.63413 5.86745C4.72156 5.84983 4.81186 5.8525 4.8981 5.87524L9.99935 7.21691L15.1035 5.87524C15.1896 5.85302 15.2795 5.85076 15.3666 5.86862C15.4537 5.88648 15.5355 5.924 15.6058 5.97831C15.6762 6.03261 15.7332 6.10227 15.7725 6.18197C15.8118 6.26166 15.8324 6.34929 15.8327 6.43816V13.199C15.8324 13.3276 15.7897 13.4525 15.7111 13.5543C15.6325 13.6561 15.5225 13.7291 15.3981 13.7619L10.1481 15.1444C10.0998 15.1583 10.0497 15.1652 9.99935 15.1648ZM5.33269 12.7498L9.99935 13.9777L14.666 12.7498V7.20816L10.1423 8.38358C10.0466 8.40827 9.94626 8.40827 9.8506 8.38358L5.33269 7.19358V12.7498Z" fill="white"/>
<path d="M9.99935 9.35498C10.3882 9.35498 10.5827 9.54943 10.5827 9.93831V12.2716C10.5827 12.6605 10.3882 12.855 9.99935 12.855C9.61046 12.855 9.41602 12.6605 9.41602 12.2716V9.93831C9.41602 9.54943 9.61046 9.35498 9.99935 9.35498Z" fill="white"/>
</svg>
