<svg width="22" height="22" viewBox="0 0 22 22" fill="none" xmlns="http://www.w3.org/2000/svg">
<g clip-path="url(#clip0_432_595)">
<path d="M5.45078 12.1279L2.91992 14.6287L5.7043 15.0691L6.14473 17.8191L8.66699 15.3334C7.23184 14.7082 6.07812 13.5588 5.45078 12.1279ZM13.4021 15.3979L15.8578 17.8234L16.2982 15.067L19.0826 14.6287L16.7107 12.2869C16.0426 13.6963 14.8588 14.8156 13.4021 15.3979Z" fill="#81653E"/>
<path d="M16.8588 11.9471C17.1445 11.2359 17.3057 10.4625 17.3057 9.65039C17.3057 6.23867 14.5299 3.46289 11.1182 3.46289C7.70645 3.46289 4.93066 6.23867 4.93066 9.65039C4.93066 10.398 5.07031 11.1135 5.31523 11.7773L2.19141 14.8625L5.40332 15.3695L5.9082 18.5299L9.02129 15.4641C9.67656 15.7025 10.3813 15.8379 11.1182 15.8379C11.7906 15.8379 12.4373 15.7262 13.0432 15.5264L16.0918 18.5385L16.5967 15.3674L19.8086 14.8604L16.8588 11.9471ZM6.14453 17.8166L5.7041 15.0666L2.91973 14.6262L5.45059 12.1254C6.07793 13.5562 7.23164 14.7057 8.6668 15.3287L6.14453 17.8166ZM11.1182 15.1504C8.08457 15.1504 5.61816 12.684 5.61816 9.65039C5.61816 6.6168 8.08457 4.15039 11.1182 4.15039C14.1496 4.15039 16.6182 6.6168 16.6182 9.65039C16.6182 12.6818 14.1496 15.1504 11.1182 15.1504ZM16.2959 15.0645L15.8555 17.8209L13.402 15.3975C14.8607 14.8152 16.0424 13.6959 16.7105 12.2844L19.0824 14.6262L16.2959 15.0645Z" fill="#81653E"/>
<path d="M11.0822 10.8363L12.2639 11.4701L12.0275 10.1682L12.9729 9.22285L11.673 9.02949L11.0822 7.8457L10.4893 9.02949L9.18945 9.22285L10.1348 10.1682L9.89844 11.4701L11.0822 10.8363Z" fill="#81653E"/>
<path d="M11.1172 4.15039C8.08359 4.15039 5.61719 6.6168 5.61719 9.65039C5.61719 12.6818 8.08359 15.1504 11.1172 15.1504C14.1486 15.1504 16.6172 12.684 16.6172 9.65039C16.6172 6.6168 14.1486 4.15039 11.1172 4.15039ZM13.3279 12.8881L11.115 11.7064L8.90215 12.8881L9.33184 10.4045L7.525 8.66426L10.0086 8.30977L11.115 6.0625L12.2215 8.30977L14.7051 8.66426L12.8896 10.4045L13.3279 12.8881Z" fill="#81653E"/>
</g>
<defs>
<clipPath id="clip0_432_595">
<rect width="22" height="22" fill="white"/>
</clipPath>
</defs>
</svg>
