<svg width="20" height="20" viewBox="0 0 20 20" fill="none" xmlns="http://www.w3.org/2000/svg">
<rect width="20" height="20" rx="10" fill="#003331"/>
<g clip-path="url(#clip0_457_682)">
<path d="M3.96588 9.79004C3.96184 9.79738 3.95823 9.80496 3.95508 9.81272C3.95826 9.80497 3.96187 9.7974 3.96588 9.79004Z" fill="white"/>
<path d="M16.9054 10.1488L16.7823 9.85393C16.2223 8.51835 15.2801 7.37799 14.0742 6.57601C12.8683 5.77404 11.4523 5.34619 10.004 5.34619C8.55578 5.34619 7.13981 5.77404 5.93388 6.57601C4.72795 7.37799 3.78581 8.51835 3.22576 9.85393L3.10156 10.1488L3.39531 10.2762L9.16978 12.7849L7.77773 13.3378L7.45914 13.4631L7.60278 13.7698C8.01208 14.6586 8.95487 15.2321 10.0035 15.2321C11.0521 15.2321 11.9949 14.6608 12.4053 13.7698L12.5478 13.4577L12.2239 13.3324L10.8372 12.7849L16.6117 10.2762L16.9054 10.1488ZM11.6396 13.7979L11.6299 13.8098V13.8152C11.6105 13.8422 11.5889 13.8681 11.5673 13.894C11.5457 13.9199 11.5273 13.9404 11.5068 13.962C11.4969 13.973 11.4864 13.9835 11.4755 13.9934C11.4601 14.01 11.4439 14.0259 11.4269 14.0409C11.4085 14.0592 11.3891 14.0765 11.3696 14.0927L11.3243 14.1305C11.3059 14.1456 11.2876 14.1608 11.2681 14.1748C11.2487 14.1888 11.2336 14.2007 11.2152 14.2126C11.1782 14.2397 11.1396 14.2646 11.0996 14.2871C11.0807 14.3001 11.0609 14.3116 11.0402 14.3217C11.0201 14.3339 10.9996 14.3447 10.9787 14.3541C10.9376 14.3757 10.8955 14.3951 10.8523 14.4135C10.8307 14.4235 10.8091 14.4322 10.7875 14.4394C10.7437 14.4571 10.699 14.4726 10.6536 14.4858C10.6093 14.4999 10.5629 14.5128 10.5165 14.5236C10.4927 14.5301 10.47 14.5344 10.4463 14.5387C10.4225 14.5431 10.3804 14.5517 10.3469 14.5571L10.2573 14.569H9.76051L9.67087 14.5571C9.63739 14.5571 9.60392 14.5463 9.57152 14.5387C9.53912 14.5312 9.52508 14.5301 9.50132 14.5236C9.45488 14.5128 9.40845 14.4999 9.36417 14.4858C9.31878 14.4726 9.27408 14.4571 9.23026 14.4394C9.20866 14.4315 9.18706 14.4228 9.16546 14.4135C9.12226 14.3951 9.08014 14.3757 9.0391 14.3541C9.01895 14.344 8.99843 14.3332 8.97755 14.3217C8.95694 14.3116 8.93708 14.3001 8.91815 14.2871C8.87821 14.2646 8.83962 14.2397 8.8026 14.2126C8.78424 14.2007 8.76696 14.1878 8.74968 14.1748C8.6646 14.1095 8.58513 14.0373 8.51209 13.9588V13.9523C8.49265 13.9318 8.47429 13.9113 8.45593 13.8897L8.44837 13.88C8.42354 13.8508 8.40086 13.8206 8.37818 13.7903L10.0143 13.1424L11.6396 13.7979ZM16.0523 9.8129L10.0046 12.4404L3.95472 9.8129C3.9579 9.80515 3.96151 9.79757 3.96552 9.79022C3.97524 9.76754 3.98712 9.74486 3.999 9.72218C4.01088 9.6995 4.03356 9.65091 4.05299 9.61419C4.06662 9.58498 4.08176 9.5565 4.09835 9.52887C4.11995 9.48567 4.14263 9.44248 4.16747 9.40036C4.20311 9.33556 4.24091 9.27292 4.27546 9.21029C4.31002 9.14765 4.33918 9.10769 4.37158 9.05693C4.51663 8.83147 4.67531 8.61508 4.84676 8.40897C4.89859 8.34633 4.95475 8.28477 5.00659 8.2243C5.1081 8.10982 5.21394 7.99967 5.32301 7.89275L5.42561 7.79664C5.45368 7.76856 5.48284 7.74264 5.512 7.71564C5.54116 7.68864 5.54656 7.68432 5.56384 7.67136C5.60596 7.63141 5.64915 7.59469 5.69343 7.55797C5.70855 7.54501 5.72367 7.53205 5.73987 7.52017C5.78631 7.48129 5.83383 7.4435 5.88134 7.40678C5.89753 7.39289 5.91447 7.37991 5.9321 7.3679C5.97962 7.3301 6.02822 7.29446 6.07789 7.2599C6.08949 7.24957 6.10216 7.24052 6.11569 7.23291C6.16321 7.19727 6.21181 7.16379 6.2604 7.13247C6.309 7.10115 6.34572 7.07415 6.38892 7.04716C6.49691 6.97804 6.60491 6.91324 6.7129 6.85061C6.7777 6.81389 6.84357 6.77789 6.91053 6.74261C7.01853 6.68753 7.12652 6.63462 7.23452 6.5871L7.34251 6.53958H7.35223C7.42027 6.51042 7.4883 6.48234 7.55742 6.45643L7.66541 6.41431L7.77341 6.37435L7.8814 6.33655C7.95592 6.31171 8.03044 6.28795 8.10603 6.26635C8.18163 6.24476 8.25722 6.22316 8.3339 6.2048C8.3717 6.194 8.4095 6.18536 8.44837 6.17672C8.48725 6.16808 8.52505 6.15836 8.56393 6.1508C8.7054 6.11948 8.84795 6.09356 8.99591 6.07196C9.03479 6.06548 9.07366 6.06008 9.11254 6.05577C9.69891 5.97801 10.293 5.97801 10.8793 6.05577C10.9182 6.06008 10.9571 6.06548 10.996 6.07196C11.1407 6.09356 11.2832 6.11948 11.4279 6.1508C11.4668 6.15836 11.5057 6.167 11.5435 6.17672C11.5813 6.18644 11.6202 6.194 11.658 6.2048C11.7346 6.22316 11.8102 6.24368 11.8858 6.26635C11.9614 6.28903 12.036 6.31171 12.1105 6.33655L12.2185 6.37435L12.3265 6.41431L12.4345 6.45643C12.5036 6.48234 12.5716 6.51042 12.6396 6.53958H12.6494L12.7574 6.5871C12.8654 6.6357 12.9733 6.68753 13.0813 6.74261C13.1483 6.77717 13.2142 6.81317 13.279 6.85061C13.387 6.91324 13.495 6.97804 13.603 7.04716C13.6462 7.07415 13.6894 7.10223 13.7315 7.13247C13.7736 7.16271 13.8287 7.19727 13.8762 7.23291C13.8897 7.24052 13.9024 7.24957 13.914 7.2599C13.9637 7.29446 14.0123 7.3301 14.0598 7.3679C14.0774 7.37991 14.0943 7.39289 14.1105 7.40678C14.158 7.4435 14.2056 7.48129 14.252 7.52017C14.2682 7.53205 14.2833 7.54501 14.2984 7.55797C14.3427 7.59469 14.3859 7.63141 14.428 7.67136C14.4453 7.68432 14.4626 7.70052 14.4799 7.71564C14.4972 7.73076 14.5382 7.76856 14.5663 7.79664L14.6743 7.89275C14.7837 8.00003 14.8892 8.11054 14.9907 8.2243C15.0458 8.28477 15.0987 8.34633 15.1505 8.40897C15.322 8.61508 15.4806 8.83147 15.6257 9.05693C15.6581 9.10769 15.6905 9.15845 15.7218 9.21029C15.7531 9.26212 15.7974 9.33556 15.8298 9.40036C15.8546 9.44248 15.8773 9.48567 15.8989 9.52887C15.9155 9.5565 15.9307 9.58498 15.9443 9.61419C15.9637 9.64983 15.9821 9.68438 15.9983 9.72218C16.0145 9.75998 16.022 9.76754 16.0328 9.79022L16.0436 9.8129H16.0523Z" fill="white"/>
<path d="M11.6411 13.798L11.6309 13.8105C11.6343 13.8062 11.6373 13.8017 11.6399 13.7969L11.6411 13.798Z" fill="white"/>
</g>
<defs>
<clipPath id="clip0_457_682">
<rect width="13.7988" height="9.88803" fill="white" transform="translate(3.10156 5.34619)"/>
</clipPath>
</defs>
</svg>
