<svg width="15" height="20" viewBox="0 0 15 20" fill="none" xmlns="http://www.w3.org/2000/svg">
<path d="M5.29997 10.9884L6.12689 8.27304L3.9519 6.59612H6.65766L7.49996 3.89229L8.34227 6.59612H11.048L8.85765 8.27304L9.68457 10.9884L7.49996 9.29995L5.29997 10.9884ZM2 19.7307V12.573C1.36667 11.9115 0.875 11.1467 0.525 10.2788C0.175 9.41086 0 8.48458 0 7.49996C0 5.40767 0.72692 3.6346 2.18076 2.18076C3.6346 0.72692 5.40767 0 7.49996 0C9.59226 0 11.3653 0.72692 12.8192 2.18076C14.273 3.6346 14.9999 5.40767 14.9999 7.49996C14.9999 8.48458 14.8249 9.41086 14.4749 10.2788C14.1249 11.1467 13.6333 11.9115 12.9999 12.573V19.7307L7.49996 17.9807L2 19.7307ZM7.49996 13.5C9.16663 13.5 10.5833 12.9166 11.75 11.75C12.9166 10.5833 13.5 9.16663 13.5 7.49996C13.5 5.8333 12.9166 4.41663 11.75 3.24996C10.5833 2.0833 9.16663 1.49996 7.49996 1.49996C5.8333 1.49996 4.41663 2.0833 3.24996 3.24996C2.0833 4.41663 1.49996 5.8333 1.49996 7.49996C1.49996 9.16663 2.0833 10.5833 3.24996 11.75C4.41663 12.9166 5.8333 13.5 7.49996 13.5ZM3.49996 17.5346L7.49996 16.4615L11.5 17.5346V13.8191C10.9295 14.1909 10.3051 14.4807 9.62689 14.6884C8.94868 14.8961 8.23971 14.9999 7.49996 14.9999C6.76022 14.9999 6.05124 14.8961 5.37304 14.6884C4.69483 14.4807 4.07048 14.1909 3.49996 13.8191V17.5346Z" fill="white"/>
</svg>
