<svg width="21" height="21" viewBox="0 0 21 21" fill="none" xmlns="http://www.w3.org/2000/svg">
<g clip-path="url(#clip0_276_448)">
<path d="M19.0238 0.182129H2.11133C1.40344 0.182129 0.830078 0.796442 0.830078 1.5549V4.64362C0.830078 5.40208 1.40344 6.01639 2.11133 6.01639H2.43164V16.0033C2.43164 16.7617 3.005 17.376 3.71289 17.376H10.5355C10.8014 17.376 11.016 17.1461 11.016 16.8613C11.016 16.5764 10.8014 16.3465 10.5355 16.3465H4.0332C3.68086 16.3465 3.39258 16.0376 3.39258 15.6601V6.01639H5.95508V4.98682H2.43164C2.31633 4.98682 2.20742 4.9525 2.11133 4.89416C1.91914 4.77747 1.79102 4.55439 1.79102 4.30043V1.89809C1.79102 1.52058 2.0793 1.2117 2.43164 1.2117H18.7035C19.0559 1.2117 19.3441 1.52058 19.3441 1.89809V4.30043C19.3441 4.55439 19.216 4.77747 19.0238 4.89416C18.9309 4.9525 18.8188 4.98682 18.7035 4.98682H9.47852V6.01639H17.7426V8.62465C17.7426 8.9095 17.9572 9.13944 18.223 9.13944C18.4889 9.13944 18.7035 8.9095 18.7035 8.62465V6.01639H19.0238C19.7317 6.01639 20.3051 5.40208 20.3051 4.64362V1.5549C20.3051 0.799874 19.7317 0.182129 19.0238 0.182129Z" fill="#003331"/>
<path d="M5.31445 0.182129V9.12914C5.31445 9.40713 5.60594 9.56843 5.82055 9.41056L7.53422 7.87306C7.64633 7.7907 7.79367 7.7907 7.90258 7.87306L9.61625 9.41056C9.82766 9.57186 10.1223 9.40713 10.1223 9.12914V0.182129H5.31445ZM9.1582 7.40289C9.1582 7.48526 9.07172 7.53673 9.00766 7.48526L8.27094 6.89153L7.90258 6.61355C7.79047 6.53118 7.64313 6.53118 7.53422 6.61355L7.16586 6.89153L6.42914 7.48526C6.36508 7.5333 6.27859 7.48526 6.27859 7.40289V1.2117H9.16141L9.1582 7.40289ZM20.1705 10.9275C19.9816 10.725 19.6773 10.725 19.4915 10.9275L14.6227 16.144L12.1115 13.4534C11.9225 13.2509 11.6182 13.2509 11.4324 13.4534C11.2434 13.6558 11.2434 13.9819 11.4324 14.1809L14.2832 17.2353C14.4722 17.4378 14.7765 17.4378 14.9623 17.2353L20.1705 11.655C20.3595 11.456 20.3595 11.13 20.1705 10.9275Z" fill="#003331"/>
</g>
<defs>
<clipPath id="clip0_276_448">
<rect width="20.5" height="20.5" fill="white"/>
</clipPath>
</defs>
</svg>
