<svg width="15" height="19" viewBox="0 0 15 19" fill="none" xmlns="http://www.w3.org/2000/svg">
<path d="M0 18.9999V5.73075C0 5.23204 0.176601 4.80608 0.529803 4.45287C0.883006 4.09967 1.30896 3.92307 1.80768 3.92307H9.33649C9.8352 3.92307 10.2612 4.09967 10.6144 4.45287C10.9676 4.80608 11.1442 5.23204 11.1442 5.73075V18.9999L5.57689 16.173L0 18.9999ZM1.49996 16.6865L5.57689 14.5269L9.64421 16.6865V5.73075C9.64421 5.641 9.61536 5.56728 9.55766 5.50958C9.49996 5.45188 9.42624 5.42303 9.33649 5.42303H1.80768C1.71793 5.42303 1.6442 5.45188 1.58651 5.50958C1.52881 5.56728 1.49996 5.641 1.49996 5.73075V16.6865ZM13.5 15.2211V1.80768C13.5 1.71793 13.4711 1.6442 13.4134 1.58651C13.3557 1.52881 13.282 1.49996 13.1922 1.49996H2.89422V0H13.1922C13.691 0 14.1169 0.176601 14.4701 0.529803C14.8233 0.883006 14.9999 1.30896 14.9999 1.80768V15.2211H13.5ZM1.49996 5.42303C1.49996 5.42303 1.52881 5.42303 1.58651 5.42303C1.6442 5.42303 1.71793 5.42303 1.80768 5.42303H9.33649C9.42624 5.42303 9.49996 5.42303 9.55766 5.42303C9.61536 5.42303 9.64421 5.42303 9.64421 5.42303H5.57689H1.49996Z" fill="#003331"/>
</svg>
