<svg width="24" height="24" viewBox="0 0 24 24" fill="none" xmlns="http://www.w3.org/2000/svg">
<path d="M12.6583 5.67798H8.16519C7.63866 5.67798 7.13336 5.88562 6.75895 6.25584L3.59376 9.38565C3.21381 9.76135 3 10.2735 3 10.8078V15.2138C3 15.5408 3.09683 15.8604 3.27828 16.1324C3.47396 16.4257 3.75818 16.6489 4.08954 16.7694L4.30999 16.8495C4.52906 16.9292 4.76037 16.9699 4.99347 16.9699H6.70792M21.1448 12.3357V14.9914V15.6519C21.1448 16.0015 21.0059 16.3367 20.7588 16.5839C20.5116 16.8311 20.1763 16.9699 19.8267 16.9699H18.7608M10.781 16.9699H14.6462" stroke="#003331" stroke-linecap="round"/>
<rect x="12.7305" y="3.5" width="9" height="9" rx="1.5" stroke="#003331"/>
<path d="M8.23047 8L5.73047 10.5" stroke="#003331" stroke-linecap="round"/>
<path d="M16.2305 5V7.7C16.2305 7.86569 16.3648 8 16.5305 8H19.2305" stroke="#003331" stroke-linecap="round"/>
<circle cx="8.73047" cy="16.97" r="2" stroke="#003331"/>
<circle cx="16.7305" cy="16.97" r="2" stroke="#003331"/>
</svg>
