<svg width="24" height="24" viewBox="0 0 24 24" fill="none" xmlns="http://www.w3.org/2000/svg">
<path d="M20.9762 16.9545H19.8853V20.7726C19.8853 21.062 19.7704 21.3394 19.5658 21.544C19.3612 21.7486 19.0837 21.8636 18.7944 21.8636H2.43075C2.14143 21.8636 1.86395 21.7486 1.65936 21.544C1.45478 21.3394 1.33984 21.062 1.33984 20.7726V7.68173C1.33984 7.39241 1.45478 7.11493 1.65936 6.91034C1.86395 6.70576 2.14143 6.59082 2.43075 6.59082H4.45766L13.5537 1.25301C13.5721 1.23478 13.5918 1.21783 13.6126 1.20228C13.7377 1.13214 13.8852 1.11313 14.0241 1.14922C14.1629 1.18531 14.2825 1.27371 14.3577 1.39591L17.4504 6.59082H18.7944C19.0837 6.59082 19.3612 6.70576 19.5658 6.91034C19.7704 7.11493 19.8853 7.39241 19.8853 7.68173V11.4999H20.9762C21.2655 11.4999 21.543 11.6149 21.7476 11.8194C21.9522 12.024 22.0671 12.3015 22.0671 12.5908V15.8636C22.0671 16.1529 21.9522 16.4304 21.7476 16.6349C21.543 16.8395 21.2655 16.9545 20.9762 16.9545ZM13.7086 2.42137L6.60457 6.59082H16.1909L13.7086 2.42137ZM18.7944 7.68173H2.43075V20.7726H18.7944V16.9545H14.4308C14.1414 16.9545 13.8639 16.8395 13.6594 16.6349C13.4548 16.4304 13.3398 16.1529 13.3398 15.8636V12.5908C13.3398 12.3015 13.4548 12.024 13.6594 11.8194C13.8639 11.6149 14.1414 11.4999 14.4308 11.4999H18.7944V7.68173ZM20.9762 12.5908H14.4308V15.8636H20.9762V12.5908Z" fill="#003331"/>
</svg>
